<mxfile host="Electron" agent="Mozilla/5.0 (Macintosh; Intel Mac OS X 10_15_7) AppleWebKit/537.36 (KHTML, like Gecko) draw.io/26.2.2 Chrome/134.0.6998.178 Electron/35.1.2 Safari/537.36" version="26.2.2">
  <diagram name="Page-1" id="xE7O2epzTtoyXmbHhLtH">
    <mxGraphModel dx="1428" dy="912" grid="1" gridSize="10" guides="1" tooltips="1" connect="1" arrows="1" fold="1" page="0" pageScale="1" pageWidth="850" pageHeight="1100" math="0" shadow="0">
      <root>
        <mxCell id="0" />
        <mxCell id="1" parent="0" />
        <mxCell id="zKHW1f63WUIppzpO4UqP-2" value="" style="rounded=0;whiteSpace=wrap;html=1;fillColor=none;dashed=1;strokeColor=#B1B1B1;" parent="1" vertex="1">
          <mxGeometry x="70" y="330" width="170" height="680" as="geometry" />
        </mxCell>
        <mxCell id="zKHW1f63WUIppzpO4UqP-3" value="&lt;font style=&quot;font-size: 24px;&quot;&gt;Sources&lt;/font&gt;" style="rounded=0;whiteSpace=wrap;html=1;strokeColor=none;" parent="1" vertex="1">
          <mxGeometry x="105" y="310" width="100" height="30" as="geometry" />
        </mxCell>
        <mxCell id="zKHW1f63WUIppzpO4UqP-4" value="" style="rounded=0;whiteSpace=wrap;html=1;fillColor=none;dashed=1;strokeColor=#B1B1B1;" parent="1" vertex="1">
          <mxGeometry x="300" y="330" width="710" height="680" as="geometry" />
        </mxCell>
        <mxCell id="zKHW1f63WUIppzpO4UqP-5" value="&lt;font style=&quot;font-size: 24px;&quot;&gt;Data Warehouse&lt;/font&gt;" style="rounded=0;whiteSpace=wrap;html=1;strokeColor=none;" parent="1" vertex="1">
          <mxGeometry x="580" y="310" width="190" height="30" as="geometry" />
        </mxCell>
        <mxCell id="zKHW1f63WUIppzpO4UqP-6" value="" style="rounded=0;whiteSpace=wrap;html=1;fillColor=none;dashed=1;strokeColor=#B1B1B1;" parent="1" vertex="1">
          <mxGeometry x="1070" y="330" width="170" height="680" as="geometry" />
        </mxCell>
        <mxCell id="zKHW1f63WUIppzpO4UqP-7" value="&lt;font style=&quot;font-size: 24px;&quot;&gt;Consume&lt;/font&gt;" style="rounded=0;whiteSpace=wrap;html=1;strokeColor=none;" parent="1" vertex="1">
          <mxGeometry x="1105" y="310" width="100" height="30" as="geometry" />
        </mxCell>
        <mxCell id="zKHW1f63WUIppzpO4UqP-8" value="&lt;font&gt;Bronze Layer&lt;/font&gt;" style="rounded=0;whiteSpace=wrap;html=1;fillColor=#ffe6cc;strokeColor=#d79b00;fontSize=20;" parent="1" vertex="1">
          <mxGeometry x="320" y="370" width="180" height="30" as="geometry" />
        </mxCell>
        <mxCell id="zKHW1f63WUIppzpO4UqP-9" value="" style="rounded=0;whiteSpace=wrap;html=1;fillColor=none;strokeColor=#d79b00;" parent="1" vertex="1">
          <mxGeometry x="320" y="420" width="180" height="570" as="geometry" />
        </mxCell>
        <mxCell id="zKHW1f63WUIppzpO4UqP-10" value="&lt;font&gt;Silver Layer&lt;/font&gt;" style="rounded=0;whiteSpace=wrap;html=1;fillColor=#f5f5f5;strokeColor=#666666;fontSize=20;fontColor=#333333;" parent="1" vertex="1">
          <mxGeometry x="565" y="370" width="180" height="30" as="geometry" />
        </mxCell>
        <mxCell id="zKHW1f63WUIppzpO4UqP-11" value="&lt;font&gt;Gold Layer&lt;/font&gt;" style="rounded=0;whiteSpace=wrap;html=1;fillColor=#fff2cc;strokeColor=#d6b656;fontSize=20;" parent="1" vertex="1">
          <mxGeometry x="810" y="370" width="180" height="30" as="geometry" />
        </mxCell>
        <mxCell id="zKHW1f63WUIppzpO4UqP-13" value="" style="rounded=0;whiteSpace=wrap;html=1;fillColor=none;strokeColor=#36393d;" parent="1" vertex="1">
          <mxGeometry x="565" y="420" width="180" height="570" as="geometry" />
        </mxCell>
        <mxCell id="zKHW1f63WUIppzpO4UqP-14" value="" style="rounded=0;whiteSpace=wrap;html=1;fillColor=none;strokeColor=#d6b656;" parent="1" vertex="1">
          <mxGeometry x="810" y="420" width="180" height="570" as="geometry" />
        </mxCell>
        <mxCell id="zKHW1f63WUIppzpO4UqP-15" value="CRM" style="image;aspect=fixed;html=1;points=[];align=center;fontSize=12;image=img/lib/azure2/general/Folder_Blank.svg;" parent="1" vertex="1">
          <mxGeometry x="125.66000000000001" y="506.17" width="54" height="43.83" as="geometry" />
        </mxCell>
        <mxCell id="zKHW1f63WUIppzpO4UqP-16" value="" style="image;aspect=fixed;html=1;points=[];align=center;fontSize=12;image=img/lib/azure2/general/File.svg;" parent="1" vertex="1">
          <mxGeometry x="157.66000000000003" y="527.68" width="24.35" height="30" as="geometry" />
        </mxCell>
        <mxCell id="zKHW1f63WUIppzpO4UqP-17" value="ERP&lt;div&gt;&lt;br&gt;&lt;/div&gt;" style="image;aspect=fixed;html=1;points=[];align=center;fontSize=12;image=img/lib/azure2/general/Folder_Blank.svg;" parent="1" vertex="1">
          <mxGeometry x="126.83" y="607.68" width="54" height="43.83" as="geometry" />
        </mxCell>
        <mxCell id="zKHW1f63WUIppzpO4UqP-18" value="" style="image;aspect=fixed;html=1;points=[];align=center;fontSize=12;image=img/lib/azure2/general/File.svg;" parent="1" vertex="1">
          <mxGeometry x="158.83" y="629.9999999999999" width="24.35" height="30" as="geometry" />
        </mxCell>
        <mxCell id="zKHW1f63WUIppzpO4UqP-20" value="&lt;div style=&quot;line-height: 200%;&quot;&gt;&lt;b&gt;Object Type&lt;/b&gt;: CSV Files&lt;div&gt;&lt;b&gt;Interface: &lt;/b&gt;Files in Folder&lt;/div&gt;&lt;/div&gt;" style="text;html=1;align=left;verticalAlign=top;whiteSpace=wrap;rounded=0;fontSize=13;" parent="1" vertex="1">
          <mxGeometry x="80.5" y="736" width="149" height="65" as="geometry" />
        </mxCell>
        <mxCell id="zKHW1f63WUIppzpO4UqP-22" value="" style="html=1;verticalLabelPosition=bottom;align=center;labelBackgroundColor=#ffffff;verticalAlign=top;strokeWidth=2;strokeColor=#d79b00;shadow=0;dashed=0;shape=mxgraph.ios7.icons.data;fillColor=#ffe6cc;" parent="1" vertex="1">
          <mxGeometry x="380" y="562.5" width="60" height="65" as="geometry" />
        </mxCell>
        <mxCell id="zKHW1f63WUIppzpO4UqP-23" value="" style="html=1;verticalLabelPosition=bottom;align=center;labelBackgroundColor=#ffffff;verticalAlign=top;strokeWidth=2;strokeColor=#666666;shadow=0;dashed=0;shape=mxgraph.ios7.icons.data;fillColor=#f5f5f5;fontColor=#333333;" parent="1" vertex="1">
          <mxGeometry x="625" y="565" width="60" height="65" as="geometry" />
        </mxCell>
        <mxCell id="zKHW1f63WUIppzpO4UqP-24" value="" style="html=1;verticalLabelPosition=bottom;align=center;labelBackgroundColor=#ffffff;verticalAlign=top;strokeWidth=2;strokeColor=#d6b656;shadow=0;dashed=0;shape=mxgraph.ios7.icons.data;fillColor=#fff2cc;" parent="1" vertex="1">
          <mxGeometry x="870" y="562.5" width="60" height="65" as="geometry" />
        </mxCell>
        <mxCell id="zKHW1f63WUIppzpO4UqP-25" value="" style="shape=flexArrow;endArrow=classic;html=1;rounded=0;fillColor=#dae8fc;strokeColor=#6c8ebf;" parent="1" edge="1">
          <mxGeometry width="50" height="50" relative="1" as="geometry">
            <mxPoint x="230" y="602" as="sourcePoint" />
            <mxPoint x="330" y="602" as="targetPoint" />
          </mxGeometry>
        </mxCell>
        <mxCell id="zKHW1f63WUIppzpO4UqP-32" value="Raw Data" style="text;html=1;align=center;verticalAlign=middle;whiteSpace=wrap;rounded=0;" parent="1" vertex="1">
          <mxGeometry x="380" y="630" width="60" height="30" as="geometry" />
        </mxCell>
        <mxCell id="zKHW1f63WUIppzpO4UqP-33" value="Cleaned, Standardized Data" style="text;html=1;align=center;verticalAlign=middle;whiteSpace=wrap;rounded=0;" parent="1" vertex="1">
          <mxGeometry x="590" y="640" width="130" height="30" as="geometry" />
        </mxCell>
        <mxCell id="zKHW1f63WUIppzpO4UqP-34" value="Business-Ready Data" style="text;html=1;align=center;verticalAlign=middle;whiteSpace=wrap;rounded=0;" parent="1" vertex="1">
          <mxGeometry x="835" y="630" width="130" height="30" as="geometry" />
        </mxCell>
        <mxCell id="zKHW1f63WUIppzpO4UqP-36" value="" style="endArrow=none;html=1;rounded=0;strokeColor=#787878;entryX=0.882;entryY=0.439;entryDx=0;entryDy=0;entryPerimeter=0;" parent="1" edge="1">
          <mxGeometry width="50" height="50" relative="1" as="geometry">
            <mxPoint x="88.78" y="720.26" as="sourcePoint" />
            <mxPoint x="221.22000000000006" y="720" as="targetPoint" />
          </mxGeometry>
        </mxCell>
        <mxCell id="zKHW1f63WUIppzpO4UqP-37" value="" style="endArrow=none;html=1;rounded=0;strokeColor=#787878;entryX=0.944;entryY=0.456;entryDx=0;entryDy=0;entryPerimeter=0;" parent="1" edge="1">
          <mxGeometry width="50" height="50" relative="1" as="geometry">
            <mxPoint x="332.54" y="680.03" as="sourcePoint" />
            <mxPoint x="487.4600000000001" y="679.9200000000001" as="targetPoint" />
          </mxGeometry>
        </mxCell>
        <mxCell id="zKHW1f63WUIppzpO4UqP-40" value="&lt;div style=&quot;line-height: 200%;&quot;&gt;&lt;div style=&quot;text-align: left;&quot;&gt;&lt;b style=&quot;background-color: transparent; color: light-dark(rgb(0, 0, 0), rgb(255, 255, 255));&quot;&gt;Object Type&lt;/b&gt;&lt;span style=&quot;background-color: transparent; color: light-dark(rgb(0, 0, 0), rgb(255, 255, 255));&quot;&gt;: Tables&lt;/span&gt;&lt;/div&gt;&lt;div&gt;&lt;div style=&quot;text-align: left;&quot;&gt;&lt;b&gt;Load&lt;/b&gt;:&amp;nbsp;&lt;/div&gt;&lt;div style=&quot;text-align: left;&quot;&gt;&lt;span style=&quot;background-color: transparent; color: light-dark(rgb(0, 0, 0), rgb(255, 255, 255));&quot;&gt;&lt;span style=&quot;white-space: pre;&quot;&gt;&#x9;&lt;/span&gt;- Batching Processing&lt;/span&gt;&lt;/div&gt;&lt;div style=&quot;text-align: left;&quot;&gt;&lt;span style=&quot;background-color: transparent; color: light-dark(rgb(0, 0, 0), rgb(255, 255, 255));&quot;&gt;&lt;span style=&quot;white-space: pre;&quot;&gt;&#x9;&lt;/span&gt;- Full Load&amp;nbsp;&lt;/span&gt;&lt;/div&gt;&lt;div style=&quot;text-align: left;&quot;&gt;&lt;span style=&quot;background-color: transparent; color: light-dark(rgb(0, 0, 0), rgb(255, 255, 255));&quot;&gt;&lt;span style=&quot;white-space: pre;&quot;&gt;&#x9;&lt;/span&gt;- Truncate &amp;amp;&amp;nbsp;Insert)&lt;/span&gt;&lt;/div&gt;&lt;/div&gt;&lt;div&gt;&lt;div style=&quot;text-align: left; line-height: 200%;&quot;&gt;&lt;div&gt;&lt;b&gt;No Transformations&lt;/b&gt;&lt;/div&gt;&lt;div&gt;&lt;b&gt;Data Model&lt;/b&gt;: Non (As-is)&lt;/div&gt;&lt;/div&gt;&lt;/div&gt;&lt;/div&gt;" style="text;html=1;align=center;verticalAlign=top;whiteSpace=wrap;rounded=0;spacingTop=0;" parent="1" vertex="1">
          <mxGeometry x="335" y="690" width="150" height="200" as="geometry" />
        </mxCell>
        <mxCell id="zKHW1f63WUIppzpO4UqP-42" value="&lt;div style=&quot;line-height: 200%;&quot;&gt;&lt;div style=&quot;text-align: left;&quot;&gt;&lt;b style=&quot;background-color: transparent; color: light-dark(rgb(0, 0, 0), rgb(255, 255, 255));&quot;&gt;Object Type&lt;/b&gt;&lt;span style=&quot;background-color: transparent; color: light-dark(rgb(0, 0, 0), rgb(255, 255, 255));&quot;&gt;: Tables&lt;/span&gt;&lt;/div&gt;&lt;div&gt;&lt;div style=&quot;text-align: left;&quot;&gt;&lt;b&gt;Load&lt;/b&gt;:&amp;nbsp;&lt;/div&gt;&lt;div style=&quot;text-align: left;&quot;&gt;&lt;span style=&quot;background-color: transparent; color: light-dark(rgb(0, 0, 0), rgb(255, 255, 255));&quot;&gt;&lt;span style=&quot;white-space: pre;&quot;&gt;&#x9;&lt;/span&gt;- Batching Processing&lt;/span&gt;&lt;/div&gt;&lt;div style=&quot;text-align: left;&quot;&gt;&lt;span style=&quot;background-color: transparent; color: light-dark(rgb(0, 0, 0), rgb(255, 255, 255));&quot;&gt;&lt;span style=&quot;white-space: pre;&quot;&gt;&#x9;&lt;/span&gt;- Full Load&amp;nbsp;&lt;/span&gt;&lt;/div&gt;&lt;div style=&quot;text-align: left;&quot;&gt;&lt;span style=&quot;background-color: transparent; color: light-dark(rgb(0, 0, 0), rgb(255, 255, 255));&quot;&gt;&lt;span style=&quot;white-space: pre;&quot;&gt;&#x9;&lt;/span&gt;- Truncate &amp;amp;&amp;nbsp;Insert)&lt;/span&gt;&lt;/div&gt;&lt;/div&gt;&lt;div&gt;&lt;div style=&quot;text-align: left;&quot;&gt;&lt;div&gt;&lt;b&gt;Transformations:&lt;/b&gt;&lt;/div&gt;&lt;div&gt;&lt;span style=&quot;font-weight: bold; white-space: pre;&quot;&gt;&#x9;&lt;/span&gt;- Data Cleansing&lt;br&gt;&lt;/div&gt;&lt;div&gt;&lt;span style=&quot;white-space: pre;&quot;&gt;&#x9;&lt;/span&gt;- Data Standardization&lt;br&gt;&lt;/div&gt;&lt;div&gt;&lt;span style=&quot;white-space: pre;&quot;&gt;&#x9;&lt;/span&gt;- Data Normalization&lt;br&gt;&lt;/div&gt;&lt;div&gt;&lt;span style=&quot;white-space: pre;&quot;&gt;&#x9;&lt;/span&gt;- Derived Columns&lt;br&gt;&lt;/div&gt;&lt;div&gt;&lt;span style=&quot;white-space: pre;&quot;&gt;&#x9;&lt;/span&gt;- Data Enrichment&lt;br&gt;&lt;/div&gt;&lt;div style=&quot;line-height: 200%;&quot;&gt;&lt;b&gt;Data Model&lt;/b&gt;: Non (As-is)&lt;/div&gt;&lt;/div&gt;&lt;/div&gt;&lt;/div&gt;" style="text;html=1;align=center;verticalAlign=top;whiteSpace=wrap;rounded=0;spacingTop=0;" parent="1" vertex="1">
          <mxGeometry x="580" y="690" width="150" height="300" as="geometry" />
        </mxCell>
        <mxCell id="zKHW1f63WUIppzpO4UqP-43" value="&lt;div style=&quot;line-height: 200%;&quot;&gt;&lt;div style=&quot;text-align: left;&quot;&gt;&lt;b style=&quot;background-color: transparent; color: light-dark(rgb(0, 0, 0), rgb(255, 255, 255));&quot;&gt;Object Type&lt;/b&gt;&lt;span style=&quot;background-color: transparent; color: light-dark(rgb(0, 0, 0), rgb(255, 255, 255));&quot;&gt;: Views&lt;/span&gt;&lt;/div&gt;&lt;div&gt;&lt;div style=&quot;text-align: left;&quot;&gt;&lt;b&gt;No Load&lt;/b&gt;&lt;/div&gt;&lt;/div&gt;&lt;div&gt;&lt;div style=&quot;text-align: left;&quot;&gt;&lt;div&gt;&lt;b&gt;Transformations:&lt;/b&gt;&lt;/div&gt;&lt;div&gt;&lt;span style=&quot;font-weight: bold; white-space: pre;&quot;&gt;&#x9;&lt;/span&gt;- Data Integrations&lt;/div&gt;&lt;div&gt;&lt;span style=&quot;white-space: pre;&quot;&gt;&#x9;&lt;/span&gt;- Aggregations&lt;br&gt;&lt;/div&gt;&lt;div&gt;&lt;span style=&quot;white-space: pre;&quot;&gt;&#x9;&lt;/span&gt;- Business Logic&lt;/div&gt;&lt;div&gt;&lt;b&gt;Data Model&lt;/b&gt;:&amp;nbsp;&lt;/div&gt;&lt;div&gt;&lt;span style=&quot;white-space: pre;&quot;&gt;&#x9;&lt;/span&gt;- Star Schema&lt;br&gt;&lt;/div&gt;&lt;div&gt;&lt;span style=&quot;white-space: pre;&quot;&gt;&#x9;&lt;/span&gt;- Flat Table&lt;br&gt;&lt;/div&gt;&lt;div&gt;&lt;span style=&quot;white-space: pre;&quot;&gt;&#x9;&lt;/span&gt;- Aggregated Table&lt;br&gt;&lt;/div&gt;&lt;/div&gt;&lt;/div&gt;&lt;/div&gt;" style="text;html=1;align=center;verticalAlign=top;whiteSpace=wrap;rounded=0;spacingTop=0;" parent="1" vertex="1">
          <mxGeometry x="822.5" y="690" width="155" height="250" as="geometry" />
        </mxCell>
        <mxCell id="zKHW1f63WUIppzpO4UqP-44" value="" style="endArrow=none;html=1;rounded=0;strokeColor=#787878;entryX=0.944;entryY=0.456;entryDx=0;entryDy=0;entryPerimeter=0;" parent="1" edge="1">
          <mxGeometry width="50" height="50" relative="1" as="geometry">
            <mxPoint x="577.54" y="679.61" as="sourcePoint" />
            <mxPoint x="732.46" y="679.5000000000001" as="targetPoint" />
          </mxGeometry>
        </mxCell>
        <mxCell id="zKHW1f63WUIppzpO4UqP-45" value="" style="endArrow=none;html=1;rounded=0;strokeColor=#787878;entryX=0.944;entryY=0.456;entryDx=0;entryDy=0;entryPerimeter=0;" parent="1" edge="1">
          <mxGeometry width="50" height="50" relative="1" as="geometry">
            <mxPoint x="822.54" y="679.61" as="sourcePoint" />
            <mxPoint x="977.46" y="679.5000000000001" as="targetPoint" />
          </mxGeometry>
        </mxCell>
        <mxCell id="zKHW1f63WUIppzpO4UqP-46" value="" style="shape=flexArrow;endArrow=classic;html=1;rounded=0;fillColor=#dae8fc;strokeColor=#6c8ebf;" parent="1" edge="1">
          <mxGeometry width="50" height="50" relative="1" as="geometry">
            <mxPoint x="750" y="601.51" as="sourcePoint" />
            <mxPoint x="800" y="601.51" as="targetPoint" />
          </mxGeometry>
        </mxCell>
        <mxCell id="zKHW1f63WUIppzpO4UqP-47" value="" style="shape=flexArrow;endArrow=classic;html=1;rounded=0;fillColor=#dae8fc;strokeColor=#6c8ebf;" parent="1" edge="1">
          <mxGeometry width="50" height="50" relative="1" as="geometry">
            <mxPoint x="980" y="602" as="sourcePoint" />
            <mxPoint x="1087.5" y="601.51" as="targetPoint" />
          </mxGeometry>
        </mxCell>
        <mxCell id="zKHW1f63WUIppzpO4UqP-48" value="" style="shape=flexArrow;endArrow=classic;html=1;rounded=0;fillColor=#dae8fc;strokeColor=#6c8ebf;" parent="1" edge="1">
          <mxGeometry width="50" height="50" relative="1" as="geometry">
            <mxPoint x="510" y="601.51" as="sourcePoint" />
            <mxPoint x="560" y="601.51" as="targetPoint" />
          </mxGeometry>
        </mxCell>
        <mxCell id="zKHW1f63WUIppzpO4UqP-50" value="" style="image;aspect=fixed;html=1;points=[];align=center;fontSize=12;image=img/lib/azure2/analytics/Power_BI_Embedded.svg;" parent="1" vertex="1">
          <mxGeometry x="1100" y="480" width="51" height="68" as="geometry" />
        </mxCell>
        <mxCell id="zKHW1f63WUIppzpO4UqP-51" value="" style="verticalLabelPosition=bottom;aspect=fixed;html=1;shape=mxgraph.salesforce.analytics;" parent="1" vertex="1">
          <mxGeometry x="1160" y="491.51" width="60" height="58.8" as="geometry" />
        </mxCell>
        <mxCell id="zKHW1f63WUIppzpO4UqP-52" value="BI &amp;amp; Reporting" style="text;html=1;align=center;verticalAlign=middle;whiteSpace=wrap;rounded=0;fontSize=14;" parent="1" vertex="1">
          <mxGeometry x="1110" y="557.68" width="100" height="30" as="geometry" />
        </mxCell>
        <mxCell id="zKHW1f63WUIppzpO4UqP-53" value="" style="sketch=0;outlineConnect=0;fontColor=#232F3E;gradientColor=none;fillColor=#007FFF;strokeColor=none;dashed=0;verticalLabelPosition=bottom;verticalAlign=top;align=center;html=1;fontSize=12;fontStyle=0;aspect=fixed;pointerEvents=1;shape=mxgraph.aws4.opensearch_observability;" parent="1" vertex="1">
          <mxGeometry x="1121" y="632" width="78" height="78" as="geometry" />
        </mxCell>
        <mxCell id="zKHW1f63WUIppzpO4UqP-54" value="Ad-Hoc&amp;nbsp;&lt;div&gt;SQL Queries&lt;/div&gt;" style="text;html=1;align=center;verticalAlign=middle;whiteSpace=wrap;rounded=0;fontSize=14;" parent="1" vertex="1">
          <mxGeometry x="1110" y="720" width="100" height="30" as="geometry" />
        </mxCell>
        <mxCell id="zKHW1f63WUIppzpO4UqP-56" value="" style="sketch=0;points=[[0,0,0],[0.25,0,0],[0.5,0,0],[0.75,0,0],[1,0,0],[0,1,0],[0.25,1,0],[0.5,1,0],[0.75,1,0],[1,1,0],[0,0.25,0],[0,0.5,0],[0,0.75,0],[1,0.25,0],[1,0.5,0],[1,0.75,0]];outlineConnect=0;fontColor=#232F3E;fillColor=#7AA116;strokeColor=#ffffff;dashed=0;verticalLabelPosition=bottom;verticalAlign=top;align=center;html=1;fontSize=12;fontStyle=0;aspect=fixed;shape=mxgraph.aws4.resourceIcon;resIcon=mxgraph.aws4.iot_things_graph;" parent="1" vertex="1">
          <mxGeometry x="1121" y="801" width="78" height="78" as="geometry" />
        </mxCell>
        <mxCell id="zKHW1f63WUIppzpO4UqP-57" value="Machine Learning" style="text;html=1;align=center;verticalAlign=middle;whiteSpace=wrap;rounded=0;fontSize=15;" parent="1" vertex="1">
          <mxGeometry x="1085" y="890" width="140" height="30" as="geometry" />
        </mxCell>
        <mxCell id="zKHW1f63WUIppzpO4UqP-59" value="" style="shadow=0;dashed=0;html=1;strokeColor=none;fillColor=#7EA6E0;labelPosition=center;verticalLabelPosition=bottom;verticalAlign=top;align=center;outlineConnect=0;shape=mxgraph.veeam.ms_sql;" parent="1" vertex="1">
          <mxGeometry x="285.2" y="285.2" width="44.8" height="44.8" as="geometry" />
        </mxCell>
        <mxCell id="zKHW1f63WUIppzpO4UqP-60" value="SQL Server" style="text;html=1;align=center;verticalAlign=middle;whiteSpace=wrap;rounded=0;fontColor=#595959;" parent="1" vertex="1">
          <mxGeometry x="330" y="310" width="70" height="20" as="geometry" />
        </mxCell>
      </root>
    </mxGraphModel>
  </diagram>
</mxfile>
